<?xml version="1.0" encoding="UTF-8"?>
<svg xmlns="http://www.w3.org/2000/svg" xmlns:xlink="http://www.w3.org/1999/xlink" viewBox="0 0 30 30" width="30px" height="30px">
<g id="surface16761829">
<path style=" stroke:none;fill-rule:nonzero;fill:rgb(100%,100%,100%);fill-opacity:1;" d="M 25.980469 2.988281 C 25.941406 2.992188 25.90625 2.996094 25.871094 3 L 20 3 C 19.640625 2.996094 19.304688 3.183594 19.121094 3.496094 C 18.941406 3.808594 18.941406 4.191406 19.121094 4.503906 C 19.304688 4.816406 19.640625 5.003906 20 5 L 23.585938 5 L 13.292969 15.292969 C 13.03125 15.542969 12.925781 15.917969 13.019531 16.265625 C 13.109375 16.617188 13.382812 16.890625 13.734375 16.980469 C 14.082031 17.074219 14.457031 16.96875 14.707031 16.707031 L 25 6.414062 L 25 10 C 24.996094 10.359375 25.183594 10.695312 25.496094 10.878906 C 25.808594 11.058594 26.191406 11.058594 26.503906 10.878906 C 26.816406 10.695312 27.003906 10.359375 27 10 L 27 4.125 C 27.039062 3.835938 26.949219 3.542969 26.753906 3.320312 C 26.558594 3.101562 26.273438 2.980469 25.980469 2.988281 Z M 6 7 C 4.90625 7 4 7.90625 4 9 L 4 24 C 4 25.09375 4.90625 26 6 26 L 21 26 C 22.09375 26 23 25.09375 23 24 L 23 11.421875 L 21 13.421875 L 21 24 L 6 24 L 6 9 L 16.578125 9 L 18.578125 7 Z M 6 7 "/>
</g>
</svg>
